<svg width="24" height="24" viewBox="0 0 24 24" fill="none" xmlns="http://www.w3.org/2000/svg">
<path fill-rule="evenodd" clip-rule="evenodd" d="M7.81 2H16.19C19.83 2 22 4.17 22 7.81V16.19C22 19 20.71 20.93 18.44 21.66C17.78 21.89 17.02 22 16.19 22H7.81C6.98 22 6.22 21.89 5.56 21.66C3.29 20.93 2 19 2 16.19V7.81C2 4.17 4.17 2 7.81 2ZM12.0008 7C13.4015 7 14.5307 8.11588 14.5307 9.5C14.5307 10.8841 13.4015 12 12.0008 12C10.6002 12 9.47096 10.8841 9.47096 9.5C9.47096 8.12661 10.6002 7 12.0008 7ZM15.812 15.3155C16.3006 16.0236 15.7794 17 14.9108 17H9.09093C8.21144 17 7.70112 16.0343 8.18972 15.3155C8.92806 14.2318 10.3613 13.5021 12.0008 13.5021C13.6404 13.5021 15.0736 14.2318 15.812 15.3155Z" fill="#292D32"/>
</svg>
